<svg xmlns="http://www.w3.org/2000/svg" width="20.113" height="17.895" viewBox="0 0 20.113 17.895">
  <path id="heart_1_" data-name="heart (1)" d="M18.518,1.751A5.409,5.409,0,0,0,14.5,0a5.06,5.06,0,0,0-3.16,1.091,6.466,6.466,0,0,0-1.278,1.334A6.462,6.462,0,0,0,8.779,1.091,5.059,5.059,0,0,0,5.619,0,5.409,5.409,0,0,0,1.6,1.751,6.287,6.287,0,0,0,0,6.045a7.487,7.487,0,0,0,1.995,4.9,42.538,42.538,0,0,0,4.994,4.687c.692.59,1.476,1.258,2.291,1.97a1.181,1.181,0,0,0,1.555,0c.814-.712,1.6-1.381,2.291-1.971a42.518,42.518,0,0,0,4.993-4.687,7.486,7.486,0,0,0,1.995-4.9A6.286,6.286,0,0,0,18.518,1.751Zm0,0" fill="#0f3535"/>
</svg>
