<svg xmlns="http://www.w3.org/2000/svg" width="18.008" height="18.275" viewBox="0 0 18.008 18.275">
  <path id="XMLID_93_" d="M19.722,3.636V1.127A1.128,1.128,0,0,0,18.6,0H17.426A1.128,1.128,0,0,0,16.3,1.127V2.954H13.391V1.127A1.128,1.128,0,0,0,12.264,0H11.1A1.128,1.128,0,0,0,9.968,1.127V2.954H7.06V1.127A1.128,1.128,0,0,0,5.933,0H4.764A1.128,1.128,0,0,0,3.637,1.127V3.636a2.777,2.777,0,0,0-.961,2.1v9.756a2.786,2.786,0,0,0,2.783,2.783H17.9a2.786,2.786,0,0,0,2.783-2.783V5.737A2.777,2.777,0,0,0,19.722,3.636ZM8.184,11.606S4.993,9.877,4.993,7.675A1.779,1.779,0,0,1,8.184,6.593a1.779,1.779,0,0,1,3.192,1.082C11.376,9.9,8.184,11.606,8.184,11.606Zm6.991,3.728s-3.192-1.729-3.192-3.931a1.779,1.779,0,0,1,3.192-1.082A1.779,1.779,0,0,1,18.367,11.4C18.367,13.625,15.175,15.334,15.175,15.334Z" transform="translate(-2.676)" fill="#0f3535"/>
</svg>
