<svg id="money-bag_1_" data-name="money-bag (1)" xmlns="http://www.w3.org/2000/svg" width="18.629" height="18.628" viewBox="0 0 18.629 18.628">
  <path id="Pfad_314" data-name="Pfad 314" d="M7.131,165.1a12.935,12.935,0,0,0,3.855-.469,1.87,1.87,0,0,1,.542-1.714,1.9,1.9,0,0,1,0-2.729,1.9,1.9,0,0,1,0-2.729,1.9,1.9,0,0,1,.208-2.9,7.742,7.742,0,0,0-1.035-.8,1.069,1.069,0,0,0,.249-.668A1.091,1.091,0,0,0,9.859,152H4.4a1.091,1.091,0,0,0-1.091,1.091,1.069,1.069,0,0,0,.248.666A7.811,7.811,0,0,0,0,160.186C0,164.589,4.085,165.1,7.131,165.1Zm-.006-5.3a1.633,1.633,0,0,1-.54-3.176v-.8a.546.546,0,0,1,1.091,0v.808a1.635,1.635,0,0,1,1.086,1.535.546.546,0,0,1-1.091,0,.546.546,0,1,0-.546.546,1.633,1.633,0,0,1,.552,3.172v.488a.546.546,0,1,1-1.091,0v-.485a1.634,1.634,0,0,1-1.1-1.538.546.546,0,1,1,1.091,0,.546.546,0,1,0,.546-.546Zm0,0" transform="translate(0 -146.47)" fill="#0f3535"/>
  <path id="Pfad_315" data-name="Pfad 315" d="M336.767,467h-4.948a.819.819,0,0,0,0,1.637h4.948a.819.819,0,0,0,0-1.637Zm0,0" transform="translate(-318.958 -450.01)" fill="#0f3535"/>
  <path id="Pfad_316" data-name="Pfad 316" d="M336.767,392h-4.948a.819.819,0,1,0,0,1.637h4.948a.819.819,0,0,0,0-1.637Zm0,0" transform="translate(-318.958 -377.739)" fill="#0f3535"/>
  <path id="Pfad_317" data-name="Pfad 317" d="M336.767,317h-4.948a.819.819,0,1,0,0,1.637h4.948a.819.819,0,0,0,0-1.637Zm0,0" transform="translate(-318.958 -305.467)" fill="#0f3535"/>
  <path id="Pfad_318" data-name="Pfad 318" d="M336.767,242h-4.948a.819.819,0,0,0,0,1.637h4.948a.819.819,0,0,0,0-1.637Zm0,0" transform="translate(-318.958 -233.196)" fill="#0f3535"/>
  <path id="Pfad_319" data-name="Pfad 319" d="M96.357,1.091a1.633,1.633,0,0,0-3.081,0h-1.73a.545.545,0,0,0-.517.718l.852,2.629h5.88l.852-2.629a.545.545,0,0,0-.517-.718Zm0,0" transform="translate(-87.689)" fill="#0f3535"/>
</svg>
