<svg id="megaphone" xmlns="http://www.w3.org/2000/svg" width="16.484" height="18.684" viewBox="0 0 16.484 18.684">
  <g id="Gruppe_564" data-name="Gruppe 564" transform="translate(6.788 0.15)">
    <g id="Gruppe_563" data-name="Gruppe 563">
      <path id="Pfad_320" data-name="Pfad 320" d="M225.319,11.708,218.032,4.42a1.1,1.1,0,1,0-1.549,1.549l7.288,7.288a1.095,1.095,0,0,0,1.548-1.548Z" transform="translate(-216.163 -4.1)" fill="#0f3535"/>
    </g>
  </g>
  <g id="Gruppe_566" data-name="Gruppe 566" transform="translate(3.918 3.025)">
    <g id="Gruppe_565" data-name="Gruppe 565" transform="translate(0)">
      <path id="Pfad_321" data-name="Pfad 321" d="M140.144,82.9l-.055.275a11.767,11.767,0,0,1-2.6,5.257l3.965,3.965a11.728,11.728,0,0,1,5.231-2.621l.275-.055Z" transform="translate(-137.494 -82.905)" fill="#0f3535"/>
    </g>
  </g>
  <g id="Gruppe_568" data-name="Gruppe 568" transform="translate(0 9.378)">
    <g id="Gruppe_567" data-name="Gruppe 567" transform="translate(0)">
      <path id="Pfad_322" data-name="Pfad 322" d="M33.327,256.989l-2.71,2.709a1.642,1.642,0,0,0,0,2.323l1.548,1.548a1.642,1.642,0,0,0,2.323,0l2.709-2.709Zm.387,4.258a.547.547,0,1,1-.774-.774l.774-.774a.547.547,0,1,1,.774.774Z" transform="translate(-30.136 -256.989)" fill="#0f3535"/>
    </g>
  </g>
  <g id="Gruppe_570" data-name="Gruppe 570" transform="translate(5.9 12.629)">
    <g id="Gruppe_569" data-name="Gruppe 569">
      <path id="Pfad_323" data-name="Pfad 323" d="M195.26,349.7l.745-.745a1.641,1.641,0,0,0,0-2.322l-.553-.553a10.366,10.366,0,0,0-.881.667l.66.661a.546.546,0,0,1,0,.773l-.757.757-1.112-1.078-1.548,1.548,2.484,2.406a1.095,1.095,0,0,0,1.548-1.549Z" transform="translate(-191.813 -346.075)" fill="#0f3535"/>
    </g>
  </g>
  <g id="Gruppe_572" data-name="Gruppe 572" transform="translate(11.011)">
    <g id="Gruppe_571" data-name="Gruppe 571" transform="translate(0)">
      <path id="Pfad_324" data-name="Pfad 324" d="M332.411,0a.547.547,0,0,0-.547.547V1.642a.547.547,0,0,0,1.095,0V.547A.547.547,0,0,0,332.411,0Z" transform="translate(-331.864)" fill="#0f3535"/>
    </g>
  </g>
  <g id="Gruppe_574" data-name="Gruppe 574" transform="translate(14.295 4.379)">
    <g id="Gruppe_573" data-name="Gruppe 573" transform="translate(0)">
      <path id="Pfad_325" data-name="Pfad 325" d="M423.506,120h-1.095a.547.547,0,1,0,0,1.095h1.095a.547.547,0,0,0,0-1.095Z" transform="translate(-421.864 -120)" fill="#0f3535"/>
    </g>
  </g>
  <g id="Gruppe_576" data-name="Gruppe 576" transform="translate(13.2 1.095)">
    <g id="Gruppe_575" data-name="Gruppe 575">
      <path id="Pfad_326" data-name="Pfad 326" d="M393.893,30.16a.547.547,0,0,0-.774,0l-1.095,1.095a.547.547,0,0,0,.774.774l1.095-1.095A.547.547,0,0,0,393.893,30.16Z" transform="translate(-391.864 -30)" fill="#0f3535"/>
    </g>
  </g>
</svg>
