<svg id="design" xmlns="http://www.w3.org/2000/svg" width="17.156" height="17.155" viewBox="0 0 17.156 17.155">
  <path id="Pfad_329" data-name="Pfad 329" d="M284.026,1.863,282.6.441a1.511,1.511,0,0,0-2.132,0l-.34.34,1.777,1.777a.5.5,0,0,1-.711.711l-1.777-1.777-.711.711,1.066,1.066a.5.5,0,0,1-.711.711L278,2.914l-1.422,1.422,3.554,3.554L284.026,4A1.511,1.511,0,0,0,284.026,1.863Zm0,0" transform="translate(-267.311 -0.001)" fill="#0f3535"/>
  <path id="Pfad_330" data-name="Pfad 330" d="M1.862,285.241a1.509,1.509,0,0,0,2.132,0l3.851-3.85-3.554-3.554L2.87,279.258l1.066,1.066a.5.5,0,1,1-.711.711l-1.066-1.066-.711.711,1.777,1.777a.5.5,0,0,1-.711.711L.738,281.39l-.3.3a1.51,1.51,0,0,0,0,2.133Zm0,0" transform="translate(0 -268.527)" fill="#0f3535"/>
  <path id="Pfad_331" data-name="Pfad 331" d="M.034.681l1.9,4.593,3.3-3.3L.683.033A.5.5,0,0,0,.034.681Zm0,0" transform="translate(-0.001 0.001)" fill="#0f3535"/>
  <path id="Pfad_332" data-name="Pfad 332" d="M147.907,86.917l1.421-1.421-9.212-9.171L138.7,77.746Zm0,0" transform="translate(-134.048 -73.767)" fill="#0f3535"/>
  <path id="Pfad_333" data-name="Pfad 333" d="M85.7,149.128l-9.212-9.171-1.421,1.421,9.211,9.171Zm0,0" transform="translate(-72.547 -135.268)" fill="#0f3535"/>
  <path id="Pfad_334" data-name="Pfad 334" d="M375.467,371.964l-.722-.722-3.554,3.554.722.722a1.512,1.512,0,0,0,2.132,0h0l1.421-1.421A1.507,1.507,0,0,0,375.467,371.964Zm0,0" transform="translate(-358.754 -358.803)" fill="#0f3535"/>
</svg>
