<svg id="Gruppe_702" data-name="Gruppe 702" xmlns="http://www.w3.org/2000/svg" width="17.672" height="17.672" viewBox="0 0 17.672 17.672">
  <path id="Pfad_327" data-name="Pfad 327" d="M233.5,6.241l-5.165-5.165a1.976,1.976,0,0,0-2.789,0l-.829.829a1.976,1.976,0,0,0,0,2.789l5.165,5.165a1.976,1.976,0,0,0,2.789,0l.829-.829A1.974,1.974,0,0,0,233.5,6.241Zm0,0" transform="translate(-216.4 -0.5)" fill="#0f3535"/>
  <path id="Pfad_328" data-name="Pfad 328" d="M7.58,117.935a3,3,0,0,1-.621-.9L3,119.05a3.742,3.742,0,0,0-1.8,2.476l-1.17,7.33a1.7,1.7,0,0,0,.108.959l6.084-6.084a1.9,1.9,0,1,1,.732.732L.865,130.548a1.621,1.621,0,0,0,.655.133h0a1.93,1.93,0,0,0,.3-.025l7.33-1.17a3.742,3.742,0,0,0,2.476-1.8l2.019-3.963a3,3,0,0,1-.9-.621Zm0,0" transform="translate(0 -113.009)" fill="#0f3535"/>
</svg>
