<svg xmlns="http://www.w3.org/2000/svg" width="1691.439" height="319.327" viewBox="0 0 1691.439 319.327">
  <g id="Gruppe_732" data-name="Gruppe 732" transform="translate(-114.922 -83.767)">
    <g id="Gruppe_731" data-name="Gruppe 731">
      <g id="Gruppe_562" data-name="Gruppe 562" transform="translate(114.922 153.329)">
        <g id="Gruppe_404" data-name="Gruppe 404" transform="translate(0 0)" opacity="0.25">
          <path id="Pfad_301" data-name="Pfad 301" d="M10608.936,5117.338H11394.1s2.129,34.745,34.471,34.763,33.273-34.763,33.273-34.763h785.7" transform="translate(-10582.139 -4916.854)" fill="none" stroke="#03b5c3" stroke-width="3"/>
          <rect id="Rechteck_577" data-name="Rechteck 577" width="17.575" height="17.575" transform="translate(220.559 200.839) rotate(-45)" fill="#03b5c3"/>
          <rect id="Rechteck_580" data-name="Rechteck 580" width="17.575" height="17.575" transform="translate(1446.403 200.839) rotate(-45)" fill="#03b5c3"/>
          <g id="Rechteck_578" data-name="Rechteck 578" transform="translate(0 200.839) rotate(-45)" fill="none" stroke="#03b5c3" stroke-width="2">
            <rect width="21.969" height="21.969" stroke="none"/>
            <rect x="1" y="1" width="19.969" height="19.969" fill="none"/>
          </g>
          <path id="Pfad_302" data-name="Pfad 302" d="M10942.893,5097.476h-38.035s-3.1,22.508-28.317,41.929" transform="translate(-10313.413 -4952.416)" fill="none" stroke="#03b5c3" stroke-width="3"/>
          <path id="Pfad_303" data-name="Pfad 303" d="M10876.539,5097.476h38.038s3.095,22.508,28.316,41.929" transform="translate(-9814.348 -4952.417)" fill="none" stroke="#03b5c3" stroke-width="3"/>
          <path id="Pfad_304" data-name="Pfad 304" d="M10915.155,5025.082" transform="translate(-10215.641 -5025.075)" fill="none" stroke="#03b5c3" stroke-width="1"/>
          <path id="Pfad_305" data-name="Pfad 305" d="M10958.155,5025.088c-3.062-.02-18.729,0-18.729,0s-92.117,131.719,0,267.481c.72-.459,18.729,0,18.729,0S10860.009,5170.819,10958.155,5025.088Z" transform="translate(-10270.306 -5094.641)" fill="#03b5c3"/>
          <path id="Pfad_306" data-name="Pfad 306" d="M10898.487,5025.088c3.057-.02,18.726,0,18.726,0s92.115,131.719,0,267.481c-.72-.459-18.726,0-18.726,0S10996.627,5170.819,10898.487,5025.088Z" transform="translate(-9895.752 -5094.641)" fill="#03b5c3"/>
          <path id="Pfad_307" data-name="Pfad 307" d="M10903.535,5071.4h21.473s-4.72,72.52,47.4,131.319" transform="translate(-10260.382 -5003.649)" fill="none" stroke="#03b5c3" stroke-width="1"/>
          <path id="Pfad_308" data-name="Pfad 308" d="M10972.405,5071.4h-21.475s4.719,72.52-47.4,131.319" transform="translate(-9924.366 -5003.649)" fill="none" stroke="#03b5c3" stroke-width="1"/>
          <g id="Rechteck_579" data-name="Rechteck 579" transform="translate(1660.371 200.839) rotate(-45)" fill="none" stroke="#03b5c3" stroke-width="2">
            <rect width="21.969" height="21.969" stroke="none"/>
            <rect x="1" y="1" width="19.969" height="19.969" fill="none"/>
          </g>
          <path id="Pfad_309" data-name="Pfad 309" d="M10738.91,5116.5l9.778,11.08,492.1-.123" transform="translate(-10426.577 -4915.661)" fill="none" stroke="#03b5c3" stroke-width="2"/>
          <path id="Pfad_310" data-name="Pfad 310" d="M11247.424,5116.5l-9.778,11.08-490.825-.381" transform="translate(-9868.577 -4915.661)" fill="none" stroke="#03b5c3" stroke-width="2"/>
          <path id="Pfad_311" data-name="Pfad 311" d="M10961.048,5121.543s8.692,37.5,46.563,37.346,46.7-37.346,46.7-37.346" transform="translate(-10160.714 -4909.625)" fill="none" stroke="#03b5c3" stroke-width="1"/>
          <g id="Gruppe_402" data-name="Gruppe 402" transform="translate(498.671 211.919)">
            <path id="Pfad_312" data-name="Pfad 312" d="M10823.731,5121.543s6.5,20.935,24.64,21.035,288.117,0,288.117,0" transform="translate(-10823.731 -5121.543)" fill="none" stroke="#03b5c3" stroke-width="1"/>
            <path id="Pfad_313" data-name="Pfad 313" d="M10845.846,5142.258v-9.081s-12.167.348-16.585-11.329" transform="translate(-10817.112 -5121.178)" fill="none" stroke="#03b5c3" stroke-width="1"/>
          </g>
          <g id="Gruppe_403" data-name="Gruppe 403" transform="translate(872.136 211.919)">
            <path id="Pfad_312-2" data-name="Pfad 312" d="M11145.287,5121.543s-6.5,20.935-24.636,21.035-211.94,0-285.92,0" transform="translate(-10824.731 -5121.543)" fill="none" stroke="#03b5c3" stroke-width="1"/>
            <path id="Pfad_313-2" data-name="Pfad 313" d="M10829.264,5142.258v-9.081s12.166.348,16.586-11.329" transform="translate(-10537.44 -5121.178)" fill="none" stroke="#03b5c3" stroke-width="1"/>
          </g>
        </g>
      </g>
      <path id="Pfad_426" data-name="Pfad 426" d="M212.6,121.959a12.215,12.215,0,0,0,9.68,5.4,11.99,11.99,0,0,0,7.223-2.124,12.254,12.254,0,1,0-13.615-20.359,12.391,12.391,0,0,0-3.25,17.08" transform="translate(837.916 95.207)" fill="#00b7c5"/>
      <path id="Pfad_427" data-name="Pfad 427" d="M74.226,199a8.4,8.4,0,0,0-1.312,0,12.245,12.245,0,0,0-10.864,8.975,12.48,12.48,0,0,0-.421,4.16,12.186,12.186,0,0,0,11.745,11.4h1.292a12.254,12.254,0,0,0,10.816-8.975,13.038,13.038,0,0,0,.411-4.17A12.186,12.186,0,0,0,74.226,199" transform="translate(841.076 93.161)" fill="#00b7c5"/>
      <path id="Pfad_428" data-name="Pfad 428" d="M169.131,135.27a7.428,7.428,0,0,0-1.546.1,6.931,6.931,0,0,0-.979.2,8.995,8.995,0,0,0,1.958,17.667,8.112,8.112,0,0,0,1.546-.1,9,9,0,0,0,7.537-10.17,8.887,8.887,0,0,0-8.476-7.693" transform="translate(838.988 94.513)" fill="#00b7c5" opacity="0.1"/>
      <path id="Pfad_429" data-name="Pfad 429" d="M185.671,129.674a10.463,10.463,0,0,0,9.2,14.682,9.9,9.9,0,0,0,4.013-.695,10.267,10.267,0,0,0,5.775-5.491,10.453,10.453,0,0,0,.2-8.055,10.336,10.336,0,0,0-9.328-6.7,9.925,9.925,0,0,0-2.936.333,7.931,7.931,0,0,0-1.155.372,10.355,10.355,0,0,0-5.765,5.52" transform="translate(838.463 94.765)" fill="#00b7c5" opacity="0.5"/>
      <path id="Pfad_430" data-name="Pfad 430" d="M72.6,157.956a8.574,8.574,0,0,0,2.936.636,8.917,8.917,0,0,0,8.555-5.6c.108-.313.225-.636.323-.979a8.9,8.9,0,1,0-11.863,5.873" transform="translate(840.963 94.397)" fill="#00b7c5" opacity="0.1"/>
      <path id="Pfad_431" data-name="Pfad 431" d="M69.87,188.158A10.307,10.307,0,0,0,81.5,180.621a8.074,8.074,0,0,0,.245-1.175,10.483,10.483,0,0,0-1.85-7.83,10.209,10.209,0,0,0-6.773-4.179,9.435,9.435,0,0,0-1.2-.127,10.512,10.512,0,0,0-10.649,8.809,10.355,10.355,0,0,0,1.83,7.83,10.179,10.179,0,0,0,6.773,4.179" transform="translate(841.086 93.833)" fill="#00b7c5" opacity="0.25"/>
      <path id="Pfad_432" data-name="Pfad 432" d="M124.805,60.066a8.741,8.741,0,0,0-6.656-3.426,8.975,8.975,0,0,0-7.341,14.5,7.978,7.978,0,0,0,.666.754,8.809,8.809,0,0,0,11.833.783,9.073,9.073,0,0,0,1.5-12.607" transform="translate(840.072 96.182)" fill="#00b7c5" opacity="0.1"/>
      <path id="Pfad_433" data-name="Pfad 433" d="M87.73,41.086A10.59,10.59,0,0,0,88.4,55.024c.284.284.577.568.881.822a10.16,10.16,0,0,0,6.157,2.33,10.561,10.561,0,0,0,1.478-.049,10.228,10.228,0,0,0,6.969-3.837,10.659,10.659,0,0,0-1.547-14.74,10.16,10.16,0,0,0-6.157-2.33,12.235,12.235,0,0,0-1.458.049,9.984,9.984,0,0,0-6.988,3.817" transform="translate(840.57 96.594)" fill="#00b7c5" opacity="0.25"/>
      <path id="Pfad_434" data-name="Pfad 434" d="M57.195,41.547a12.92,12.92,0,0,0,3.357,2.447,11.873,11.873,0,0,0,4.894,1.223,12.235,12.235,0,0,0,11.4-6.9,12.45,12.45,0,0,0-2.3-13.977,13.135,13.135,0,0,0-3.367-2.447,11.833,11.833,0,0,0-4.894-1.223,12.166,12.166,0,0,0-11.315,6.92,12.342,12.342,0,0,0,2.222,13.957" transform="translate(841.242 96.944)" fill="#00b7c5"/>
      <circle id="Ellipse_417" data-name="Ellipse 417" cx="99.738" cy="99.738" r="99.738" transform="translate(860.393 115.393)" fill="#133535"/>
      <path id="Pfad_435" data-name="Pfad 435" d="M118.248,219.892q-3.749,0-7.517-.274a101.649,101.649,0,1,1,7.517.274Zm-.3-199.809a97.971,97.971,0,1,0,7.214.264h0q-3.612-.264-7.214-.264Z" transform="translate(842.039 97.042)" fill="#00b7c5"/>
      <path id="Pfad_436" data-name="Pfad 436" d="M68.361,98.649A6.294,6.294,0,0,1,63.467,96.5a7.918,7.918,0,0,1-1.958-5.481v-.793a8.124,8.124,0,0,1,1.958-5.54,5.941,5.941,0,0,1,4.649-2.2,5.745,5.745,0,0,1,4.5,1.811,6.93,6.93,0,0,1,1.644,4.835v1.458H63.281v.421a6.852,6.852,0,0,0,1.4,4.395,4.463,4.463,0,0,0,3.68,1.781,7.5,7.5,0,0,0,2.741-.45,5.325,5.325,0,0,0,1.958-1.282l.675,1.243a6.313,6.313,0,0,1-2.212,1.458A8.691,8.691,0,0,1,68.361,98.649Zm-.235-14.682a4.14,4.14,0,0,0-3.2,1.468A6.274,6.274,0,0,0,63.409,89.1v.078h9.142v-.431a4.992,4.992,0,0,0-1.194-3.4A4.121,4.121,0,0,0,68.126,83.968Z" transform="translate(841.078 95.633)" fill="#fff"/>
      <path id="Pfad_437" data-name="Pfad 437" d="M79.66,96.961,82,96.775V84.119l-2.339-.186V82.651h4.062V96.775l2.329.186v1.272H79.66ZM83.722,78.2H82.009V75.78h1.713Z" transform="translate(840.693 95.775)" fill="#fff"/>
      <path id="Pfad_438" data-name="Pfad 438" d="M90.919,97.1l2.329-.186V84.262l-2.329-.186V82.794h3.915l.078,2.721a5.373,5.373,0,0,1,5.041-3,4.8,4.8,0,0,1,3.856,1.546,7.351,7.351,0,0,1,1.351,4.806v8.026l2.339.186v1.272h-6.421V97.074l2.329-.186V88.862a5.706,5.706,0,0,0-.979-3.8,3.582,3.582,0,0,0-2.858-1.1,4.434,4.434,0,0,0-2.936.979,5.227,5.227,0,0,0-1.644,2.535V96.9l2.329.186v1.272H90.88Z" transform="translate(840.455 95.633)" fill="#fff"/>
      <path id="Pfad_439" data-name="Pfad 439" d="M112.46,84.074V82.664h2.574V80.384a5.178,5.178,0,0,1,1.165-3.621,4.189,4.189,0,0,1,3.3-1.282,6.2,6.2,0,0,1,.979.069,9.032,9.032,0,0,1,.979.206l-.225,1.419c-.225-.059-.46-.1-.7-.137a7.939,7.939,0,0,0-.842,0,2.7,2.7,0,0,0-2.173.9,3.758,3.758,0,0,0-.754,2.5v2.281h3.71v1.409H116.8V96.847l2.329.186v1.272h-6.431V97.033l2.339-.186V84.122Z" transform="translate(839.996 95.782)" fill="#fff"/>
      <path id="Pfad_440" data-name="Pfad 440" d="M136.209,98.376c-.117-.529-.2-.979-.245-1.37a7.752,7.752,0,0,1-.069-1.165,6.851,6.851,0,0,1-2.31,2.026,6.558,6.558,0,0,1-3.24.812,4.972,4.972,0,0,1-3.533-1.184,4.15,4.15,0,0,1-1.253-3.2,3.915,3.915,0,0,1,1.85-3.416,8.809,8.809,0,0,1,5.041-1.272H135.9V87.55a3.347,3.347,0,0,0-1.1-2.6,4.356,4.356,0,0,0-2.936-.979,7.517,7.517,0,0,0-2.369.352,5.569,5.569,0,0,0-1.791.979l-.137,2.085h-1.478V84.448a8.809,8.809,0,0,1,2.6-1.458,9.641,9.641,0,0,1,3.171-.489A6.264,6.264,0,0,1,136,83.811a4.61,4.61,0,0,1,1.566,3.759v8.564a6.261,6.261,0,0,0,.088.861l1.556.1v1.272Zm-5.677-1.223a6.206,6.206,0,0,0,3.3-.881,5.07,5.07,0,0,0,2.046-2.232v-3.1h-3.455a6.489,6.489,0,0,0-3.749.979,2.936,2.936,0,0,0-1.4,2.457,2.564,2.564,0,0,0,.871,2.016A3.455,3.455,0,0,0,130.532,97.152Z" transform="translate(839.719 95.633)" fill="#fff"/>
      <path id="Pfad_441" data-name="Pfad 441" d="M150.8,97.22a4.894,4.894,0,0,0,3.024-.979,3.23,3.23,0,0,0,1.312-2.721h1.527v.088a4.277,4.277,0,0,1-1.723,3.612,6.411,6.411,0,0,1-4.14,1.429,5.873,5.873,0,0,1-4.894-2.183,8.721,8.721,0,0,1-1.752-5.6v-.607a8.691,8.691,0,0,1,1.752-5.589A5.873,5.873,0,0,1,150.8,82.49a7.83,7.83,0,0,1,3.3.675,6.49,6.49,0,0,1,2.427,1.84l.069,3.4h-1.458l-.274-2.76a4.767,4.767,0,0,0-1.713-1.233,5.657,5.657,0,0,0-2.339-.45,4.17,4.17,0,0,0-3.71,1.791,7.9,7.9,0,0,0-1.194,4.512v.607a8.017,8.017,0,0,0,1.184,4.542A4.15,4.15,0,0,0,150.8,97.22Z" transform="translate(839.324 95.633)" fill="#fff"/>
      <path id="Pfad_442" data-name="Pfad 442" d="M161.8,77.072V75.79h4.111v9.543A5.569,5.569,0,0,1,171,82.4a4.767,4.767,0,0,1,3.719,1.5,7.008,7.008,0,0,1,1.321,4.737v8.143l2.329.186v1.272H171.95V96.961l2.339-.186V88.6a5.285,5.285,0,0,0-.979-3.631,3.563,3.563,0,0,0-2.76-1.145,4.708,4.708,0,0,0-2.936.93,5.334,5.334,0,0,0-1.752,2.467v9.514l2.339.186v1.272h-6.4V96.922l2.339-.186V77.16Z" transform="translate(838.949 95.775)" fill="#fff"/>
      <path id="Pfad_443" data-name="Pfad 443" d="M175.235,116.64H62.861a2.329,2.329,0,0,1-1.8-2.085h0a2.329,2.329,0,0,1,1.8-2.085H175.235a2.33,2.33,0,0,1,1.791,2.085h0a2.33,2.33,0,0,1-1.791,2.085Z" transform="translate(841.088 94.997)" fill="#00b7c5"/>
      <path id="Pfad_444" data-name="Pfad 444" d="M61.16,130.62h2.026v32.789H61.16Z" transform="translate(841.084 94.611)" fill="#fff"/>
      <path id="Pfad_445" data-name="Pfad 445" d="M108.625,147a20.975,20.975,0,0,1-1.057,6.734,16.15,16.15,0,0,1-3.044,5.462,14.231,14.231,0,0,1-4.894,3.651,16.972,16.972,0,0,1-13.165,0,14.222,14.222,0,0,1-4.894-3.651,16.15,16.15,0,0,1-3.044-5.462,21.944,21.944,0,0,1,0-13.458,16.052,16.052,0,0,1,3.044-5.462,14.134,14.134,0,0,1,4.894-3.651,16.884,16.884,0,0,1,13.165,0,14.114,14.114,0,0,1,4.894,3.651,15.916,15.916,0,0,1,3.054,5.462A20.946,20.946,0,0,1,108.625,147Zm-29.158,0a18.743,18.743,0,0,0,.92,5.971,14.682,14.682,0,0,0,2.662,4.894,12.665,12.665,0,0,0,10,4.571,12.881,12.881,0,0,0,5.726-1.243,13.116,13.116,0,0,0,4.238-3.328,14.74,14.74,0,0,0,2.672-4.894,19.879,19.879,0,0,0,0-11.941,14.6,14.6,0,0,0-2.672-4.894,13.008,13.008,0,0,0-4.238-3.338,13.449,13.449,0,0,0-15.729,3.338,14.583,14.583,0,0,0-2.662,4.894A18.841,18.841,0,0,0,79.467,147Z" transform="translate(840.738 94.629)" fill="#fff"/>
      <path id="Pfad_446" data-name="Pfad 446" d="M117.93,132.382V130.64h25.125v1.742H131.476V163.41H129.45V132.382Z" transform="translate(839.881 94.611)" fill="#fff"/>
      <path id="Pfad_447" data-name="Pfad 447" d="M150.683,163.409H148.52l13.194-32.789h2.2l12.949,32.789h-2.153l-11.8-30.812h-.1Z" transform="translate(839.23 94.611)" fill="#fff"/>
    </g>
  </g>
</svg>
